:FULLY-SPECIFIED
:FORCE-ALL-JOINTS-BE-3DOF
:DEGREES
227
root 8.81838 16.4598 -5.1709 8.96255 -3.04296 -3.57203
lfemur -47.1668 5.4605 -19.6023
ltibia 32.8617 -0 0
lfoot -11.7041 8.23087 -0.153244
ltoes -8.51992 0 0
rfemur 11.0012 2.91086 25.7635
rtibia 19.4485 -0 0
rfoot -2.13218 6.10867 -0.190774
rtoes -11.5251 0 0
lowerback -6.39756 2.60978 1.09391
upperback -2.03976 3.34634 2.52782
thorax 1.3471 1.68602 2.23454
lowerneck -17.1268 -6.34869 -14.3604
upperneck 15.8495 -8.06283 15.0569
head 9.01719 -3.23109 6.52511
lclavicle -1.94623e-14 -5.56597e-15 0
lhumerus -49.7928 -6.37315 91.7829
lradius 23.3301 -0 0
lwrist 0.303874 0 0
lhand -9.807 -23.451 -0.0101177
lfingers 7.12502 -0 0
lthumb 16.1697 5.89805 -0.00833492
rclavicle -1.94623e-14 -5.56597e-15 0
rhumerus -40.8936 9.92053 -84.2869
rradius 47.268 -0 0
rwrist -24.8292 0 0
rhand -31.3736 -25.9089 0.0622501
rfingers 7.12502 -0 0
rthumb -4.64368 -55.8294 0.0594278
228
root 8.84524 16.4548 -5.00737 9.04727 -3.26465 -3.49626
lfemur -47.1895 5.75507 -19.8456
ltibia 33.5645 -0 0
lfoot -11.4096 8.05047 -0.151457
ltoes -8.00007 0 0
rfemur 11.2719 2.80453 25.4231
rtibia 20.0405 -0 0
rfoot -1.19674 6.15137 -0.209197
rtoes -11.706 0 0
lowerback -6.40392 2.61338 1.00869
upperback -2.12393 3.35921 2.4751
thorax 1.26127 1.69299 2.22764
lowerneck -17.1876 -6.33092 -14.3518
upperneck 15.915 -8.03836 15.051
head 9.04531 -3.21695 6.52645
lclavicle -1.94623e-14 -5.56597e-15 0
lhumerus -49.7543 -6.18022 91.5419
lradius 23.078 -0 0
lwrist -0.242321 0 0
lhand -9.59981 -23.3852 -0.0088822
lfingers 7.12502 -0 0
lthumb 16.3692 5.94712 -0.00733115
rclavicle -1.94623e-14 -5.56597e-15 0
rhumerus -41.2621 9.82949 -84.4762
rradius 46.8525 -0 0
rwrist -24.643 0 0
rhand -31.2327 -25.7055 0.0622444
rfingers 7.12502 -0 0
rthumb -4.50761 -55.6288 0.0594141
229
root 8.8721 16.4497 -4.84384 9.12966 -3.48146 -3.41846
lfemur -47.1919 6.04776 -20.0897
ltibia 34.265 -0 0
lfoot -11.1162 7.87107 -0.148478
ltoes -7.48307 0 0
rfemur 11.5186 2.70026 25.0802
rtibia 20.6401 -0 0
rfoot -0.274724 6.18651 -0.226892
rtoes -11.8906 0 0
lowerback -6.40959 2.61415 0.921967
upperback -2.20694 3.36835 2.42279
thorax 1.17649 1.6981 2.22173
lowerneck -17.2499 -6.31266 -14.3425
upperneck 15.9822 -8.01311 15.0437
head 9.07408 -3.20245 6.52738
lclavicle -1.94623e-14 -5.56597e-15 0
lhumerus -49.7045 -5.99361 91.3031
lradius 22.8289 -0 0
lwrist -0.783667 0 0
lhand -9.39382 -23.319 -0.00778552
lfingers 7.12502 -0 0
lthumb 16.5675 5.99655 -0.0064248
rclavicle -1.94623e-14 -5.56597e-15 0
rhumerus -41.631 9.73692 -84.6628
rradius 46.4347 -0 0
rwrist -24.456 0 0
rhand -31.0914 -25.502 0.0617186
rfingers 7.12502 -0 0
rthumb -4.37116 -55.428 0.0589048
230
root 8.89896 16.4446 -4.68032 9.20931 -3.69277 -3.33875
lfemur -47.1737 6.33733 -20.3341
ltibia 34.9594 -0 0
lfoot -10.8257 7.69313 -0.144349
ltoes -6.97066 0 0
rfemur 11.7399 2.59829 24.7361
rtibia 21.2457 -0 0
rfoot 0.629962 6.21347 -0.243488
rtoes -12.0783 0 0
lowerback -6.41456 2.61201 0.833941
upperback -2.28843 3.37362 2.37105
thorax 1.09315 1.70128 2.21687
lowerneck -17.3134 -6.29385 -14.3322
upperneck 16.0509 -7.98704 15.0351
head 9.10346 -3.1876 6.52785
lclavicle -1.94623e-14 -5.56597e-15 0
lhumerus -49.6425 -5.81424 91.0675
lradius 22.5837 -0 0
lwrist -1.31806 0 0
lhand -9.1903 -23.2529 -0.0068378
lfingers 7.12502 -0 0
lthumb 16.7634 6.046 -0.00562492
rclavicle -1.94623e-14 -5.56597e-15 0
rhumerus -41.9989 9.64315 -84.846
rradius 46.0163 -0 0
rwrist -24.2691 0 0
rhand -30.9502 -25.2989 0.0606771
rfingers 7.12502 -0 0
rthumb -4.23489 -55.2278 0.0579044
231
root 8.92582 16.4396 -4.51679 9.28581 -3.898 -3.25726
lfemur -47.1346 6.6225 -20.578
ltibia 35.6438 -0 0
lfoot -10.5399 7.51707 -0.139123
ltoes -6.46461 0 0
rfemur 11.9344 2.49885 24.3917
rtibia 21.8556 -0 0
rfoot 1.51341 6.23171 -0.258602
rtoes -12.2688 0 0
lowerback -6.41883 2.60688 0.744802
upperback -2.36801 3.37491 2.32006
thorax 1.01169 1.70248 2.21312
lowerneck -17.3782 -6.27446 -14.3209
upperneck 16.1213 -7.96011 15.025
head 9.13344 -3.17238 6.52783
lclavicle -1.94623e-14 -5.56597e-15 0
lhumerus -49.5672 -5.64302 90.8356
lradius 22.3434 -0 0
lwrist -1.8434 0 0
lhand -8.99056 -23.1874 -0.00604304
lfingers 7.12502 -0 0
lthumb 16.9557 6.09515 -0.00493612
rclavicle -1.94623e-14 -5.56597e-15 0
rhumerus -42.3645 9.54852 -85.0251
rradius 45.5992 -0 0
rwrist -24.0832 0 0
rhand -30.8099 -25.097 0.0591317
rfingers 7.12502 -0 0
rthumb -4.09937 -55.0286 0.056424
232
root 8.95268 16.4345 -4.35326 9.35876 -4.09653 -3.1741
lfemur -47.0743 6.90203 -20.8207
ltibia 36.3144 -0 0
lfoot -10.2607 7.34336 -0.132872
ltoes -5.96667 0 0
rfemur 12.1006 2.40212 24.0482
rtibia 22.468 -0 0
rfoot 2.3717 6.24063 -0.271837
rtoes -12.4617 0 0
lowerback -6.42238 2.59867 0.654742
upperback -2.44529 3.37208 2.27
thorax 0.932489 1.70161 2.21054
lowerneck -17.4441 -6.25445 -14.3087
upperneck 16.1932 -7.93228 15.0133
head 9.16399 -3.15678 6.52729
lclavicle -1.94623e-14 -5.56597e-15 0
lhumerus -49.4778 -5.48086 90.6083
lradius 22.109 -0 0
lwrist -2.35758 0 0
lhand -8.79588 -23.1228 -0.0053993
lfingers 7.12502 -0 0
lthumb 17.1431 6.14366 -0.00435868
rclavicle -1.94623e-14 -5.56597e-15 0
rhumerus -42.7264 9.45337 -85.1994
rradius 45.1851 -0 0
rwrist -23.899 0 0
rhand -30.6709 -24.8968 0.0571013
rfingers 7.12502 -0 0
rthumb -3.96518 -54.8312 0.0544818
233
root 8.97954 16.4295 -4.18974 9.42776 -4.28775 -3.08938
lfemur -46.9925 7.17467 -21.0617
ltibia 36.9673 -0 0
lfoot -9.98968 7.17243 -0.125681
ltoes -5.4786 0 0
rfemur 12.2371 2.30829 23.7067
rtibia 23.0811 -0 0
rfoot 3.20093 6.23969 -0.282788
rtoes -12.6566 0 0
lowerback -6.42522 2.58732 0.563956
upperback -2.51989 3.36502 2.22104
thorax 0.855977 1.69862 2.20919
lowerneck -17.511 -6.23377 -14.2953
upperneck 16.2668 -7.90351 15
head 9.19508 -3.14081 6.5262
lclavicle -1.94623e-14 -5.56597e-15 0
lhumerus -49.3733 -5.32868 90.3864
lradius 21.8814 -0 0
lwrist -2.8585 0 0
lhand -8.60756 -23.0597 -0.00489896
lfingers 7.12502 -0 0
lthumb 17.3243 6.1912 -0.00388872
rclavicle -1.94623e-14 -5.56597e-15 0
rhumerus -43.0833 9.35808 -85.3683
rradius 44.7759 -0 0
rwrist -23.7175 0 0
rhand -30.5339 -24.6989 0.054612
rfingers 7.12502 -0 0
rthumb -3.83288 -54.6361 0.0521027
234
root 9.0064 16.4244 -4.02621 9.49242 -4.47107 -3.00321
lfemur -46.8889 7.43916 -21.3003
ltibia 37.5987 -0 0
lfoot -9.72884 7.00471 -0.117648
ltoes -5.00216 0 0
rfemur 12.3425 2.2175 23.3683
rtibia 23.6935 -0 0
rfoot 3.99718 6.22834 -0.291048
rtoes -12.8532 0 0
lowerback -6.42733 2.57274 0.472633
upperback -2.59143 3.3536 2.17335
thorax 0.782558 1.69344 2.20913
lowerneck -17.5786 -6.21239 -14.2807
upperneck 16.3421 -7.87375 14.9849
head 9.2267 -3.12444 6.52452
lclavicle -1.94623e-14 -5.56597e-15 0
lhumerus -49.2527 -5.18738 90.1705
lradius 21.6617 -0 0
lwrist -3.34406 0 0
lhand -8.42688 -22.9983 -0.00452906
lfingers 7.12502 -0 0
lthumb 17.4982 6.23744 -0.00351848
rclavicle -1.94623e-14 -5.56597e-15 0
rhumerus -43.4338 9.26303 -85.531
rradius 44.3733 -0 0
rwrist -23.5395 0 0
rhand -30.3994 -24.5041 0.0516965
rfingers 7.12502 -0 0
rthumb -3.70305 -54.444 0.0493179
235
root 9.03327 16.4193 -3.86268 9.55234 -4.64586 -2.91569
lfemur -46.763 7.69423 -21.5358
ltibia 38.2048 -0 0
lfoot -9.47994 6.84065 -0.108885
ltoes -4.53911 0 0
rfemur 12.4152 2.12988 23.0341
rtibia 24.3032 -0 0
rfoot 4.75654 6.20604 -0.296214
rtoes -13.0509 0 0
lowerback -6.4287 2.55485 0.380968
upperback -2.65953 3.33769 2.12711
thorax 0.712641 1.686 2.21042
lowerneck -17.647 -6.19027 -14.2649
upperneck 16.4191 -7.84296 14.9679
head 9.25881 -3.10768 6.52221
lclavicle -1.94623e-14 -5.56597e-15 0
lhumerus -49.1149 -5.05787 89.9614
lradius 21.4507 -0 0
lwrist -3.81216 0 0
lhand -8.25514 -22.9393 -0.00427173
lfingers 7.12502 -0 0
lthumb 17.6635 6.28203 -0.00323658
rclavicle -1.94623e-14 -5.56597e-15 0
rhumerus -43.7766 9.16862 -85.6869
rradius 43.9792 -0 0
rwrist -23.3658 0 0
rhand -30.2681 -24.3129 0.0483943
rfingers 7.12502 -0 0
rthumb -3.57626 -54.2554 0.046165
236
root 9.06013 16.4143 -3.69916 9.60713 -4.81153 -2.82694
lfemur -46.6145 7.93863 -21.7676
ltibia 38.7816 -0 0
lfoot -9.24479 6.68068 -0.0995163
ltoes -4.0912 0 0
rfemur 12.4538 2.04556 22.7053
rtibia 24.9086 -0 0
rfoot 5.47509 6.17224 -0.29789
rtoes -13.2495 0 0
lowerback -6.42934 2.53358 0.289152
upperback -2.7238 3.31719 2.08249
thorax 0.646638 1.67625 2.21311
lowerneck -17.7159 -6.16736 -14.2478
upperneck 16.4977 -7.8111 14.949
head 9.2914 -3.09051 6.51925
lclavicle -1.94623e-14 -5.56597e-15 0
lhumerus -48.959 -4.94106 89.7598
lradius 21.2495 -0 0
lwrist -4.2607 0 0
lhand -8.09364 -22.883 -0.0041048
lfingers 7.12502 -0 0
lthumb 17.819 6.32466 -0.00302846
rclavicle -1.94623e-14 -5.56597e-15 0
rhumerus -44.1103 9.07526 -85.8354
rradius 43.5953 -0 0
rwrist -23.1973 0 0
rhand -30.1405 -24.1259 0.044751
rfingers 7.12502 -0 0
rthumb -3.45307 -54.0709 0.0426876
237
root 9.08699 16.4092 -3.53563 9.6564 -4.96744 -2.73705
lfemur -46.443 8.1711 -21.9952
ltibia 39.3254 -0 0
lfoot -9.02519 6.52524 -0.0896768
ltoes -3.66019 0 0
rfemur 12.4568 1.96465 22.3829
rtibia 25.5079 -0 0
rfoot 6.14891 6.1264 -0.295693
rtoes -13.4485 0 0
lowerback -6.42923 2.50884 0.197376
upperback -2.78387 3.29197 2.03967
thorax 0.584956 1.66411 2.21727
lowerneck -17.7852 -6.14362 -14.2293
upperneck 16.578 -7.77812 14.928
head 9.32443 -3.07293 6.51559
lclavicle -1.94623e-14 -5.56597e-15 0
lhumerus -48.7839 -4.83787 89.5664
lradius 21.059 -0 0
lwrist -4.68756 0 0
lhand -7.94366 -22.8299 -0.00400238
lfingers 7.12502 -0 0
lthumb 17.9633 6.36498 -0.00287683
rclavicle -1.94623e-14 -5.56597e-15 0
rhumerus -44.4337 8.98338 -85.9759
rradius 43.2234 -0 0
rwrist -23.0349 0 0
rhand -30.0173 -23.9437 0.0408183
rfingers 7.12502 -0 0
rthumb -3.33405 -53.8912 0.0389346
238
root 9.11385 16.4041 -3.3721 9.69977 -5.113 -2.64614
lfemur -46.2481 8.39036 -22.2178
ltibia 39.8322 -0 0
lfoot -8.82295 6.37476 -0.0795111
ltoes -3.24784 0 0
rfemur 12.4228 1.88727 22.068
rtibia 26.0996 -0 0
rfoot 6.77408 6.06799 -0.289262
rtoes -13.6476 0 0
lowerback -6.42836 2.48057 0.105834
upperback -2.83935 3.2619 1.99881
thorax 0.528004 1.64952 2.22296
lowerneck -17.8549 -6.11901 -14.2094
upperneck 16.66 -7.74398 14.9049
head 9.35788 -3.05493 6.51121
lclavicle -1.94623e-14 -5.56597e-15 0
lhumerus -48.5887 -4.74922 89.382
lradius 20.8802 -0 0
lwrist -5.09066 0 0
lhand -7.80649 -22.7804 -0.00393567
lfingers 7.12502 -0 0
lthumb 18.0953 6.40267 -0.0027622
rclavicle -1.94623e-14 -5.56597e-15 0
rhumerus -44.7454 8.89341 -86.1076
rradius 42.8653 -0 0
rwrist -22.8794 0 0
rhand -29.8989 -23.7671 0.036653
rfingers 7.12502 -0 0
rthumb -3.21977 -53.717 0.0349605
